<svg width="14" height="16" viewBox="0 0 14 16" fill="none" xmlns="http://www.w3.org/2000/svg">
<path d="M13.4341 12.9524V13.7143H0.434139V12.9524L1.87858 11.4286V6.85714C1.87858 4.49524 3.34469 2.41524 5.48969 1.74476V1.52381C5.48969 1.11967 5.64188 0.732083 5.91276 0.446313C6.18365 0.160544 6.55105 0 6.93414 0C7.31723 0 7.68463 0.160544 7.95552 0.446313C8.2264 0.732083 8.37858 1.11967 8.37858 1.52381V1.74476C10.5236 2.41524 11.9897 4.49524 11.9897 6.85714V11.4286L13.4341 12.9524ZM8.37858 14.4762C8.37858 14.8803 8.2264 15.2679 7.95552 15.5537C7.68463 15.8395 7.31723 16 6.93414 16C6.55105 16 6.18365 15.8395 5.91276 15.5537C5.64188 15.2679 5.48969 14.8803 5.48969 14.4762" fill="black"/>
</svg>
