<svg width="22" height="21" viewBox="0 0 22 21" fill="none" xmlns="http://www.w3.org/2000/svg">
<path d="M11.6065 6.08989C11.7514 5.94503 11.9479 5.86365 12.1528 5.86365C12.3577 5.86365 12.5542 5.94503 12.6991 6.08989L16.1764 9.56716C16.3212 9.71207 16.4026 9.90858 16.4026 10.1135C16.4026 10.3184 16.3212 10.5149 16.1764 10.6598L12.6991 14.1371C12.5534 14.2778 12.3582 14.3557 12.1556 14.354C11.953 14.3522 11.7591 14.2709 11.6159 14.1277C11.4726 13.9844 11.3913 13.7906 11.3896 13.588C11.3878 13.3854 11.4657 13.1902 11.6065 13.0444L13.6982 10.8862H6.35732C6.15238 10.8862 5.95584 10.8048 5.81092 10.6599C5.66601 10.515 5.58459 10.3184 5.58459 10.1135C5.58459 9.90854 5.66601 9.712 5.81092 9.56708C5.95584 9.42217 6.15238 9.34076 6.35732 9.34076H13.6982L11.6065 7.18253C11.4616 7.03762 11.3802 6.84111 11.3802 6.63621C11.3802 6.43131 11.4616 6.2348 11.6065 6.08989Z" fill="#2A2A2A"/>
<circle cx="10.9937" cy="10.5" r="9.5" stroke="#2A2A2A" stroke-width="2"/>
</svg>
