<svg width="21" height="21" viewBox="0 0 21 21" fill="none" xmlns="http://www.w3.org/2000/svg">
<g id="Go">
<circle id="Ellipse 32" cx="10.5" cy="10.5" r="9.5" fill="#2A2A2A" stroke="#2A2A2A" stroke-width="2"/>
<path id="Vector" d="M11.1128 6.08994C11.2577 5.94507 11.4542 5.86369 11.6591 5.86369C11.864 5.86369 12.0605 5.94507 12.2054 6.08994L15.6827 9.56721C15.8276 9.71212 15.909 9.90863 15.909 10.1135C15.909 10.3184 15.8276 10.5149 15.6827 10.6598L12.2054 14.1371C12.0597 14.2779 11.8645 14.3558 11.6619 14.354C11.4593 14.3522 11.2655 14.271 11.1222 14.1277C10.9789 13.9844 10.8977 13.7906 10.8959 13.588C10.8942 13.3854 10.972 13.1902 11.1128 13.0445L13.2046 10.8863H5.86367C5.65873 10.8863 5.46218 10.8048 5.31727 10.6599C5.17235 10.515 5.09094 10.3185 5.09094 10.1135C5.09094 9.90859 5.17235 9.71204 5.31727 9.56713C5.46218 9.42221 5.65873 9.3408 5.86367 9.3408H13.2046L11.1128 7.18257C10.9679 7.03767 10.8866 6.84116 10.8866 6.63626C10.8866 6.43136 10.9679 6.23485 11.1128 6.08994Z" fill="white"/>
</g>
</svg>
