<svg width="18" height="19" viewBox="0 0 18 19" fill="none" xmlns="http://www.w3.org/2000/svg">
<path d="M12.4049 1.07152L12.5283 1.19494L12.4049 1.07152C12.247 1.22936 12.1583 1.44344 12.1583 1.66667V2.15833H5.84167V1.66667C5.84167 1.44344 5.75299 1.22936 5.59515 1.07152C5.4373 0.913675 5.22322 0.825 5 0.825C4.77678 0.825 4.5627 0.913675 4.40485 1.07152C4.24701 1.22936 4.15833 1.44344 4.15833 1.66667V2.15833H2.33333C1.9333 2.15833 1.54965 2.31725 1.26678 2.60011C0.983913 2.88298 0.825 3.26663 0.825 3.66667V17C0.825 17.4 0.983913 17.7837 1.26678 18.0666C1.54965 18.3494 1.9333 18.5083 2.33333 18.5083H15.6667C16.0667 18.5083 16.4504 18.3494 16.7332 18.0666C17.0161 17.7837 17.175 17.4 17.175 17V3.66667C17.175 3.26663 17.0161 2.88298 16.7332 2.60011C16.4504 2.31725 16.0667 2.15833 15.6667 2.15833H13.8417V1.66667C13.8417 1.44344 13.753 1.22936 13.5951 1.07152C13.4373 0.913675 13.2232 0.825 13 0.825C12.7768 0.825 12.5627 0.913675 12.4049 1.07152ZM4.15833 3.84167V4.33333C4.15833 4.55656 4.24701 4.77064 4.40485 4.92848C4.5627 5.08632 4.77678 5.175 5 5.175C5.22322 5.175 5.4373 5.08632 5.59515 4.92848C5.75299 4.77064 5.84167 4.55656 5.84167 4.33333V3.84167H12.1583V4.33333C12.1583 4.55656 12.247 4.77064 12.4049 4.92848L12.5286 4.80474L12.4049 4.92848C12.5627 5.08632 12.7768 5.175 13 5.175C13.2232 5.175 13.4373 5.08632 13.5951 4.92848C13.753 4.77064 13.8417 4.55656 13.8417 4.33333V3.84167H15.4917V6.15833H2.50833V3.84167H4.15833ZM2.50833 16.825V7.84167H15.4917V16.825H2.50833ZM11.5951 12.9285C11.753 12.7706 11.8417 12.5566 11.8417 12.3333C11.8417 12.1101 11.753 11.896 11.5951 11.7382C11.4373 11.5803 11.2232 11.4917 11 11.4917H9.84167V10.3333C9.84167 10.1101 9.75299 9.89603 9.59515 9.73818C9.43731 9.58034 9.22322 9.49167 9 9.49167C8.77678 9.49167 8.5627 9.58034 8.40485 9.73818C8.24701 9.89603 8.15833 10.1101 8.15833 10.3333V11.4917H7C6.77678 11.4917 6.5627 11.5803 6.40485 11.7382C6.24701 11.896 6.15833 12.1101 6.15833 12.3333C6.15833 12.5566 6.24701 12.7706 6.40485 12.9285C6.5627 13.0863 6.77678 13.175 7 13.175H8.15833V14.3333C8.15833 14.5566 8.24701 14.7706 8.40485 14.9285C8.5627 15.0863 8.77678 15.175 9 15.175C9.22322 15.175 9.43731 15.0863 9.59515 14.9285C9.75299 14.7706 9.84167 14.5566 9.84167 14.3333V13.175H11C11.2232 13.175 11.4373 13.0863 11.5951 12.9285Z" fill="white" stroke="white" stroke-width="0.35"/>
</svg>
