<svg width="20" height="15" viewBox="0 0 20 15" fill="none" xmlns="http://www.w3.org/2000/svg">
<path d="M6.63572 13.7887L6.63572 13.7887C6.78929 13.8523 6.95389 13.8851 7.12013 13.8851C7.28636 13.8851 7.45097 13.8523 7.60453 13.7887L7.3652 13.2113L7.60454 13.7887C7.75799 13.7251 7.89742 13.6318 8.01485 13.5143C8.01493 13.5143 8.01501 13.5142 8.0151 13.5141L18.2544 3.2748C18.4917 3.0375 18.625 2.71566 18.625 2.38007C18.625 2.04449 18.4917 1.72265 18.2544 1.48535C18.0171 1.24806 17.6953 1.11475 17.3597 1.11475C17.0241 1.11475 16.7022 1.24806 16.465 1.48535L16.4649 1.48537L7.12015 10.8309L3.53509 7.24514L3.53505 7.24509C3.29775 7.0078 2.97591 6.87449 2.64033 6.87449C2.30474 6.87449 1.9829 7.0078 1.74561 7.24509L2.18053 7.68002L1.74561 7.24509C1.50831 7.48239 1.375 7.80423 1.375 8.13982C1.375 8.4754 1.50831 8.79724 1.74561 9.03454L6.22516 13.5141C6.22524 13.5142 6.22532 13.5143 6.22541 13.5143C6.34284 13.6318 6.48226 13.7251 6.63572 13.7887Z" fill="black" stroke="black" stroke-width="1.25"/>
</svg>
