<svg width="12" height="12" viewBox="0 0 12 12" fill="none" xmlns="http://www.w3.org/2000/svg">
<path d="M10.9422 10.0579L10.9422 10.0579L6.8837 6.00003L10.9422 1.94218L10.9422 1.94217C11.0594 1.82491 11.1253 1.66587 11.1253 1.50003C11.1253 1.3342 11.0594 1.17516 10.9422 1.0579C10.8249 0.940633 10.6659 0.874756 10.5 0.874756C10.3342 0.874756 10.1752 0.940633 10.0579 1.0579L10.0579 1.0579L6.00003 5.11637L1.94218 1.0579L1.94217 1.0579C1.82491 0.940633 1.66587 0.874756 1.50003 0.874756C1.3342 0.874756 1.17516 0.940633 1.0579 1.0579C0.940633 1.17516 0.874756 1.3342 0.874756 1.50003C0.874756 1.66587 0.940633 1.82491 1.0579 1.94217L1.0579 1.94218L5.11637 6.00003L1.0579 10.0579L1.0579 10.0579C0.940633 10.1752 0.874756 10.3342 0.874756 10.5C0.874756 10.6659 0.940633 10.8249 1.0579 10.9422C1.17516 11.0594 1.3342 11.1253 1.50003 11.1253C1.66587 11.1253 1.82491 11.0594 1.94217 10.9422L1.94218 10.9422L6.00003 6.8837L10.0579 10.9422L10.0579 10.9422C10.116 11.0002 10.1849 11.0463 10.2607 11.0777C10.3366 11.1091 10.4179 11.1253 10.5 11.1253C10.5821 11.1253 10.6635 11.1091 10.7393 11.0777C10.8152 11.0463 10.8841 11.0002 10.9422 10.9422C11.0002 10.8841 11.0463 10.8152 11.0777 10.7393C11.1091 10.6635 11.1253 10.5821 11.1253 10.5C11.1253 10.4179 11.1091 10.3366 11.0777 10.2607C11.0463 10.1849 11.0002 10.116 10.9422 10.0579Z" fill="black" stroke="black" stroke-width="0.25"/>
</svg>
