<svg width="25" height="25" viewBox="0 0 25 25" fill="none" xmlns="http://www.w3.org/2000/svg">
<path d="M12.5114 23.8555L3.39952 13.353L3.02905 12.926C1.89078 11.5884 1.24244 9.76725 1.25007 7.85518C1.25769 5.9419 1.92135 4.12714 3.07105 2.80197C4.21792 1.48007 5.74678 0.758386 7.31647 0.750073C8.88504 0.741765 10.418 1.4462 11.5745 2.7536L11.9449 3.18056L12.5106 3.8326L13.0772 3.18135L13.4468 2.75654C14.6046 1.46029 16.1339 0.764626 17.6973 0.777052C19.2622 0.789491 20.7853 1.51084 21.9287 2.82858C23.0749 4.14956 23.7383 5.95733 23.7498 7.86463C23.7614 9.77012 23.1213 11.5875 21.9925 12.9275L21.6233 13.353L12.5114 23.8555Z" fill="black" fill-opacity="0.15" stroke="white" stroke-width="1.5"/>
</svg>
