<svg width="25" height="24" viewBox="0 0 25 24" fill="none" xmlns="http://www.w3.org/2000/svg">
<g clip-path="url(#clip0_1156_1451)">
<path d="M11.9998 2.25C14.0551 2.25 15.9559 2.64999 17.7024 3.44998C19.449 4.24997 20.8297 5.3378 21.8446 6.71344C22.8595 8.08903 23.367 9.58955 23.367 11.2149C23.367 12.8403 22.8595 14.3429 21.8446 15.7228C20.8297 17.1027 19.4511 18.1926 17.7088 18.9926C15.9665 19.7925 14.0635 20.1926 11.9998 20.1926C11.3486 20.1926 10.6762 20.146 9.98265 20.0529C6.97168 22.1438 5.36897 23.202 5.17444 23.2274C5.0814 23.2613 4.99257 23.257 4.908 23.2147C4.87416 23.1893 4.8488 23.1555 4.83188 23.1131C4.81496 23.0708 4.80652 23.0327 4.80652 22.9988V22.9481C4.85729 22.6179 5.24208 21.2423 5.961 18.8212C4.32866 18.0085 3.03251 16.9313 2.07256 15.5895C1.11261 14.2477 0.632629 12.7895 0.632629 11.2149C0.632629 9.58955 1.14009 8.08903 2.15502 6.71344C3.16995 5.3378 4.55067 4.24997 6.29719 3.44998C8.04371 2.64999 9.94458 2.25 11.9998 2.25Z" fill="black"/>
</g>
<defs>
<clipPath id="clip0_1156_1451">
<rect width="24" height="24" fill="white" transform="translate(0.0232544)"/>
</clipPath>
</defs>
</svg>
