<svg width="14" height="8" viewBox="0 0 14 8" fill="none" xmlns="http://www.w3.org/2000/svg">
<path d="M2.10056 0.962229L2.10055 0.962218C1.94998 0.824209 1.75009 0.75 1.54573 0.75C1.34137 0.75 1.14148 0.824209 0.990915 0.962218C0.839622 1.10089 0.75 1.29388 0.75 1.50022C0.75 1.70657 0.839622 1.89955 0.990915 2.03823L6.44508 7.03757C6.44512 7.0376 6.44515 7.03764 6.44518 7.03767C6.51989 7.1062 6.60744 7.15953 6.70233 7.19559C6.79726 7.23166 6.89835 7.25 7 7.25C7.10165 7.25 7.20274 7.23166 7.29766 7.19559C7.39256 7.15953 7.48011 7.1062 7.55481 7.03767C7.55485 7.03764 7.55488 7.0376 7.55492 7.03757L13.0091 2.03823L12.8402 1.85393L13.0091 2.03823C13.0839 1.96968 13.1445 1.88711 13.1863 1.7946C13.2281 1.70202 13.25 1.60192 13.25 1.50022C13.25 1.39853 13.2281 1.29842 13.1863 1.20584C13.1445 1.11334 13.0839 1.03077 13.0091 0.962218C12.9343 0.893708 12.8468 0.840393 12.7518 0.804356C12.6569 0.768324 12.5559 0.75 12.4543 0.75C12.3526 0.75 12.2516 0.768324 12.1567 0.804356C12.0618 0.840393 11.9742 0.893708 11.8995 0.962218L11.8994 0.962229L7 5.45371L2.10056 0.962229Z" fill="black" stroke="black" stroke-width="0.5"/>
</svg>
