<svg width="10" height="18" viewBox="0 0 10 18" fill="none" xmlns="http://www.w3.org/2000/svg">
<path d="M8.97178 15.4646L8.97176 15.4646L3.09433 9L8.97176 2.53541L8.97178 2.53539C9.15221 2.33688 9.25 2.07233 9.25 1.80091C9.25 1.52949 9.15221 1.26494 8.97178 1.06643C8.79062 0.86712 8.53951 0.75 8.27201 0.75C8.00451 0.75 7.75341 0.86712 7.57225 1.06643L1.02882 8.26528C1.02879 8.26532 1.02876 8.26535 1.02873 8.26539C0.939054 8.36382 0.869026 8.47948 0.821606 8.6052L1.05552 8.69343L0.821606 8.6052C0.774176 8.73095 0.75 8.86505 0.75 9C0.75 9.13495 0.774176 9.26905 0.821606 9.3948C0.869017 9.5205 0.939027 9.63614 1.02868 9.73456C1.02872 9.73461 1.02877 9.73466 1.02882 9.73472L7.57225 16.9336C7.75341 17.1329 8.00451 17.25 8.27201 17.25C8.53951 17.25 8.79062 17.1329 8.97177 16.9336C9.15222 16.7351 9.25 16.4705 9.25 16.1991C9.25 15.9277 9.15221 15.6631 8.97178 15.4646Z" fill="black" stroke="black" stroke-width="0.5"/>
</svg>
