<svg width="24" height="20" viewBox="0 0 24 20" fill="none" xmlns="http://www.w3.org/2000/svg">
<path d="M21.9631 3.66197H2.85287C1.77792 3.66197 0.911987 2.84507 0.911987 1.83099C0.911987 0.816902 1.77792 0 2.85287 0H21.9631C23.0381 0 23.904 0.816902 23.904 1.83099C23.904 2.84507 23.0381 3.66197 21.9631 3.66197ZM23.904 10C23.904 8.98592 23.0381 8.16901 21.9631 8.16901H2.85287C1.77792 8.16901 0.911987 8.98592 0.911987 10C0.911987 11.0141 1.77792 11.831 2.85287 11.831H21.9631C23.0381 11.831 23.904 11.0141 23.904 10ZM23.904 18.169C23.904 17.1549 23.0381 16.338 21.9631 16.338H2.85287C1.77792 16.338 0.911987 17.1549 0.911987 18.169C0.911987 19.1831 1.77792 20 2.85287 20H21.9631C23.0381 20 23.904 19.1831 23.904 18.169Z" fill="black"/>
</svg>
