<svg width="15" height="15" viewBox="0 0 16 16" fill="none" xmlns="http://www.w3.org/2000/svg">
<path d="M7.54768 0.5C8.54224 0.5 9.49607 0.895088 10.1993 1.59835C10.9026 2.30161 11.2977 3.25544 11.2977 4.25C11.2977 5.24456 10.9026 6.19839 10.1993 6.90165C9.49607 7.60491 8.54224 8 7.54768 8C6.55312 8 5.59929 7.60491 4.89603 6.90165C4.19277 6.19839 3.79768 5.24456 3.79768 4.25C3.79768 3.25544 4.19277 2.30161 4.89603 1.59835C5.59929 0.895088 6.55312 0.5 7.54768 0.5ZM7.54768 8.9375C11.6914 8.9375 15.0477 11.5531 15.0477 13.625V15.5H0.0476799V13.625C0.0476799 11.5531 3.40393 8.9375 7.54768 8.9375Z" fill="black"/>
</svg>
