<svg width="16" height="16" viewBox="0 0 16 16" fill="none" xmlns="http://www.w3.org/2000/svg">
<path d="M8.04768 0.5C9.04224 0.5 9.99607 0.895088 10.6993 1.59835C11.4026 2.30161 11.7977 3.25544 11.7977 4.25C11.7977 5.24456 11.4026 6.19839 10.6993 6.90165C9.99607 7.60491 9.04224 8 8.04768 8C7.05312 8 6.09929 7.60491 5.39603 6.90165C4.69277 6.19839 4.29768 5.24456 4.29768 4.25C4.29768 3.25544 4.69277 2.30161 5.39603 1.59835C6.09929 0.895088 7.05312 0.5 8.04768 0.5ZM8.04768 8.9375C12.1914 8.9375 15.5477 11.5531 15.5477 13.625V15.5H0.54768V13.625C0.54768 11.5531 3.90393 8.9375 8.04768 8.9375Z" fill="black"/>
</svg>
