<svg width="17" height="17" viewBox="0 0 18 17" fill="none" xmlns="http://www.w3.org/2000/svg">
<path d="M9.07392 1.54545C7.22946 1.54545 5.46054 2.27816 4.15631 3.58239C2.85208 4.88662 2.11937 6.65554 2.11937 8.5C2.11937 10.3522 2.84187 12.0337 4.0226 13.2801L4.41206 13.6912L3.43301 15.4545H9.07392C9.9872 15.4545 10.8915 15.2747 11.7353 14.9252C12.5791 14.5757 13.3457 14.0634 13.9915 13.4176C14.6373 12.7718 15.1496 12.0052 15.4991 11.1614C15.8486 10.3176 16.0285 9.41328 16.0285 8.5C16.0285 7.58672 15.8486 6.68237 15.4991 5.83861C15.1496 4.99485 14.6373 4.22818 13.9915 3.58239C13.3457 2.9366 12.5791 2.42434 11.7353 2.07484C10.8915 1.72534 9.9872 1.54545 9.07392 1.54545ZM0.573921 8.5C0.573921 3.80568 4.3796 0 9.07392 0C13.7682 0 17.5739 3.80568 17.5739 8.5C17.5739 13.1943 13.7682 17 9.07392 17H0.805739L2.52119 13.9137C1.2602 12.3917 0.571332 10.4765 0.573921 8.5ZM9.84664 4.25V10.0455H8.30119V4.25H9.84664ZM8.30119 11.2045H9.84974V12.7531H8.30119V11.2045Z" fill="black"/>
</svg>
