<svg width="144" height="120" viewBox="0 0 144 120" fill="none" xmlns="http://www.w3.org/2000/svg">
<g clip-path="url(#clip0_1714_3312)">
<path d="M92.2635 27.4287C63.8084 27.4287 40.5269 45.8401 40.5269 68.5716C40.5269 91.303 63.8084 109.714 92.2635 109.714C98.6788 109.714 104.835 108.789 110.526 107.143C125.634 120 144 120 144 120C131.945 108.017 130.031 99.943 129.772 96.8573C138.568 89.503 144 79.5259 144 68.5716C144 45.8401 120.719 27.4287 92.2635 27.4287Z" fill="#909090"/>
<path d="M0 100V96C0 100 0.00145671 100 0.00298508 100L0.00640643 100L0.0145541 100L0.0360418 99.9999L0.0995694 99.9993C0.150969 99.9988 0.220371 99.9977 0.307091 99.9957C0.480505 99.9917 0.723329 99.9841 1.03007 99.9694C1.64331 99.9401 2.5135 99.8827 3.59648 99.7703C5.75992 99.5457 8.78762 99.0999 12.3219 98.2131C18.9057 96.561 27.3663 93.3478 35.2548 87.0761C40.857 88.5288 46.8343 89.3333 53.0299 89.3333C83.5427 89.3333 110.06 69.223 110.06 42.6667C110.06 16.1104 83.5427 -4 53.0299 -4C22.5172 -4 -4 16.1104 -4 42.6667C-4 54.6376 1.52185 65.4293 10.2775 73.5302C9.45714 76.8831 6.66774 83.6211 -2.83648 93.1796L-9.61803 100H0Z" fill="#909090" stroke="#D4D4D4" stroke-width="8"/>
</g>
<defs>
<clipPath id="clip0_1714_3312">
<rect width="144" height="120" fill="white"/>
</clipPath>
</defs>
</svg>
