<svg width="28" height="28" viewBox="0 0 28 28" fill="none" xmlns="http://www.w3.org/2000/svg">
<path d="M27.0391 15.0391C27.2905 14.7876 27.4318 14.4465 27.4318 14.0909C27.4318 13.7353 27.2905 13.3942 27.0391 13.1427C26.7876 12.8913 26.4465 12.75 26.0909 12.75H15.4318V2.09091C15.4318 1.73528 15.2905 1.39421 15.0391 1.14274C14.7876 0.891274 14.4465 0.75 14.0909 0.75C13.7353 0.75 13.3942 0.891274 13.1427 1.14274C12.8913 1.39421 12.75 1.73528 12.75 2.09091V12.75H2.09091C1.73528 12.75 1.39421 12.8913 1.14274 13.1427C0.891274 13.3942 0.75 13.7353 0.75 14.0909C0.75 14.4465 0.891274 14.7876 1.14274 15.0391C1.39421 15.2905 1.73528 15.4318 2.09091 15.4318H12.75V26.0909C12.75 26.4465 12.8913 26.7876 13.1427 27.0391C13.3942 27.2905 13.7353 27.4318 14.0909 27.4318C14.4465 27.4318 14.7876 27.2905 15.0391 27.0391C15.2905 26.7876 15.4318 26.4465 15.4318 26.0909V15.4318H26.0909C26.4465 15.4318 26.7876 15.2905 27.0391 15.0391Z" fill="#858585" stroke="#858585" stroke-width="0.5"/>
</svg>
