<svg width="15" height="14" viewBox="0 0 15 14" fill="none" xmlns="http://www.w3.org/2000/svg">
<path d="M12.985 14L8.08502 9.1C7.69614 9.41111 7.24891 9.65741 6.74336 9.83889C6.2378 10.0204 5.69984 10.1111 5.12947 10.1111C3.71651 10.1111 2.5208 9.62163 1.54236 8.64267C0.563914 7.6637 0.0744321 6.468 0.0739136 5.05556C0.0739136 3.64259 0.563395 2.44689 1.54236 1.46844C2.52132 0.49 3.71702 0.000518519 5.12947 0C6.54243 0 7.7384 0.489482 8.71736 1.46844C9.69632 2.44741 10.1855 3.64311 10.185 5.05556C10.185 5.62593 10.0943 6.16389 9.9128 6.66944C9.73132 7.175 9.48502 7.62222 9.17391 8.01111L14.0739 12.9111L12.985 14ZM5.12947 8.55556C6.10169 8.55556 6.92821 8.21541 7.60902 7.53511C8.28984 6.85481 8.62999 6.0283 8.62947 5.05556C8.62947 4.08333 8.28932 3.25707 7.60902 2.57678C6.92873 1.89648 6.10221 1.55607 5.12947 1.55556C4.15725 1.55556 3.33099 1.89596 2.65069 2.57678C1.9704 3.25759 1.62999 4.08385 1.62947 5.05556C1.62947 6.02778 1.96988 6.8543 2.65069 7.53511C3.33151 8.21593 4.15777 8.55607 5.12947 8.55556Z" fill="black"/>
</svg>
