<svg width="15" height="14" viewBox="0 0 15 14" fill="none" xmlns="http://www.w3.org/2000/svg">
<rect width="15" height="14" fill="#F5F5F5"/>
<g id="assets">
<g id="Title_bar">
<g id="Topbar_bg" filter="url(#filter0_b_0_1)">
<rect x="-313" y="-128" width="1437" height="170" fill="url(#paint0_radial_0_1)"/>
<rect x="-312.5" y="-127.5" width="1436" height="169" stroke="url(#paint1_linear_0_1)"/>
</g>
<g id="menubar">
<g id="all">
<g id="need_btn" filter="url(#filter1_bd_0_1)">
<rect x="-13" y="-13" width="102" height="40" rx="20" fill="#DDDDDD" fill-opacity="0.4" shape-rendering="crispEdges"/>
<rect x="-12.5" y="-12.5" width="101" height="39" rx="19.5" stroke="url(#paint2_linear_0_1)" shape-rendering="crispEdges"/>
</g>
<g id="Frame 3">
<path id="Vector" d="M12.9851 14L8.08509 9.1C7.6962 9.41111 7.24897 9.65741 6.74342 9.83889C6.23786 10.0204 5.6999 10.1111 5.12953 10.1111C3.71657 10.1111 2.52086 9.62163 1.54242 8.64267C0.563975 7.6637 0.0744931 6.468 0.0739746 5.05556C0.0739746 3.64259 0.563456 2.44689 1.54242 1.46844C2.52138 0.49 3.71709 0.000518519 5.12953 0C6.54249 0 7.73846 0.489482 8.71742 1.46844C9.69638 2.44741 10.1856 3.64311 10.1851 5.05556C10.1851 5.62593 10.0943 6.16389 9.91286 6.66944C9.73138 7.175 9.48509 7.62222 9.17397 8.01111L14.074 12.9111L12.9851 14ZM5.12953 8.55556C6.10175 8.55556 6.92827 8.21541 7.60909 7.53511C8.2899 6.85481 8.63005 6.0283 8.62953 5.05556C8.62953 4.08333 8.28938 3.25707 7.60909 2.57678C6.92879 1.89648 6.10227 1.55607 5.12953 1.55556C4.15731 1.55556 3.33105 1.89596 2.65075 2.57678C1.97046 3.25759 1.63005 4.08385 1.62953 5.05556C1.62953 6.02778 1.96994 6.8543 2.65075 7.53511C3.33157 8.21593 4.15783 8.55607 5.12953 8.55556Z" fill="black"/>
</g>
</g>
</g>
</g>
</g>
<defs>
<filter id="filter0_b_0_1" x="-413" y="-228" width="1637" height="370" filterUnits="userSpaceOnUse" color-interpolation-filters="sRGB">
<feFlood flood-opacity="0" result="BackgroundImageFix"/>
<feGaussianBlur in="BackgroundImageFix" stdDeviation="50"/>
<feComposite in2="SourceAlpha" operator="in" result="effect1_backgroundBlur_0_1"/>
<feBlend mode="normal" in="SourceGraphic" in2="effect1_backgroundBlur_0_1" result="shape"/>
</filter>
<filter id="filter1_bd_0_1" x="-113" y="-113" width="302" height="240" filterUnits="userSpaceOnUse" color-interpolation-filters="sRGB">
<feFlood flood-opacity="0" result="BackgroundImageFix"/>
<feGaussianBlur in="BackgroundImageFix" stdDeviation="50"/>
<feComposite in2="SourceAlpha" operator="in" result="effect1_backgroundBlur_0_1"/>
<feColorMatrix in="SourceAlpha" type="matrix" values="0 0 0 0 0 0 0 0 0 0 0 0 0 0 0 0 0 0 127 0" result="hardAlpha"/>
<feOffset dx="4" dy="4"/>
<feGaussianBlur stdDeviation="2.5"/>
<feComposite in2="hardAlpha" operator="out"/>
<feColorMatrix type="matrix" values="0 0 0 0 0 0 0 0 0 0 0 0 0 0 0 0 0 0 0.25 0"/>
<feBlend mode="normal" in2="effect1_backgroundBlur_0_1" result="effect2_dropShadow_0_1"/>
<feBlend mode="normal" in="SourceGraphic" in2="effect2_dropShadow_0_1" result="shape"/>
</filter>
<radialGradient id="paint0_radial_0_1" cx="0" cy="0" r="1" gradientUnits="userSpaceOnUse" gradientTransform="translate(-190.313 -188.107) rotate(13.5726) scale(1267.7 152.006)">
<stop stop-color="#F9F9F9" stop-opacity="0.7"/>
<stop offset="1" stop-color="#F9F9F9" stop-opacity="0.2"/>
</radialGradient>
<linearGradient id="paint1_linear_0_1" x1="-403.151" y1="-194.179" x2="1107.26" y2="171.814" gradientUnits="userSpaceOnUse">
<stop stop-color="white" stop-opacity="0.7"/>
<stop offset="0.35" stop-color="white" stop-opacity="0.01"/>
<stop offset="0.595" stop-color="white" stop-opacity="0.01"/>
<stop offset="1" stop-color="white" stop-opacity="0.1"/>
</linearGradient>
<linearGradient id="paint2_linear_0_1" x1="-9.65858" y1="-42.3164" x2="18.1205" y2="-38.8277" gradientUnits="userSpaceOnUse">
<stop stop-color="#F6F6F6" stop-opacity="0.7"/>
<stop stop-color="#F6F6F6" stop-opacity="0.7"/>
<stop offset="0.0001" stop-color="white" stop-opacity="0.4"/>
<stop offset="0.385" stop-color="white" stop-opacity="0.01"/>
<stop offset="0.66" stop-color="white" stop-opacity="0.01"/>
<stop offset="1" stop-color="white" stop-opacity="0.1"/>
</linearGradient>
</defs>
</svg>
