<svg width="16" height="8" viewBox="0 0 18 10" fill="none" xmlns="http://www.w3.org/2000/svg">
<path d="M2.41109 1.01105L2.4111 1.01107L9 7.05134L15.5889 1.01107L15.5889 1.01105C15.6805 0.927063 15.7882 0.861465 15.9052 0.817048C16.0221 0.772637 16.1469 0.75 16.2724 0.75C16.3979 0.75 16.5226 0.772637 16.6396 0.817048C16.7565 0.861465 16.8642 0.927063 16.9558 1.01105C17.0475 1.09509 17.1215 1.19604 17.1724 1.30878C17.2234 1.42159 17.25 1.54337 17.25 1.66696C17.25 1.79056 17.2234 1.91234 17.1724 2.02515C17.1215 2.13788 17.0475 2.23884 16.9558 2.32287L9.68355 8.9887L9.68344 8.98879L9.51452 8.8045C9.44698 8.86648 9.36677 8.91564 9.27849 8.94919C9.1902 8.98274 9.09557 9 9 9C8.90443 9 8.8098 8.98274 8.72151 8.94919C8.63323 8.91564 8.55302 8.86648 8.48548 8.8045L2.41109 1.01105ZM2.41109 1.01105C2.22641 0.841776 1.98024 0.75 1.72764 0.75C1.47504 0.75 1.22887 0.841776 1.0442 1.01105C0.858788 1.181 0.75 1.4164 0.75 1.66696C0.75 1.91753 0.858788 2.15292 1.0442 2.32287L8.31645 8.9887M2.41109 1.01105L8.31645 8.9887M8.31645 8.9887C8.31649 8.98873 8.31652 8.98876 8.31655 8.98879L8.31645 8.9887Z" fill="black" stroke="black" stroke-width="0.5"/>
</svg>
