<svg width="18" height="20" viewBox="0 0 18 20" fill="none" xmlns="http://www.w3.org/2000/svg">
<path d="M2.53734 9.21333L2.53736 9.21332L7.94996 4.13796V18.25C7.94996 18.5206 8.06477 18.7766 8.26327 18.9627C8.46123 19.1483 8.72646 19.25 8.99991 19.25C9.27335 19.25 9.53859 19.1483 9.73654 18.9627C9.93505 18.7766 10.0499 18.5206 10.0499 18.25V4.13796L15.4624 9.21324C15.4624 9.21327 15.4624 9.21329 15.4625 9.21332C15.5606 9.30542 15.6763 9.3777 15.8025 9.42676C15.9288 9.47583 16.0636 9.50091 16.1994 9.50091C16.3352 9.50091 16.4701 9.47583 16.5963 9.42676C16.7225 9.37772 16.8381 9.30548 16.9363 9.21343C17.0346 9.12136 17.1135 9.01115 17.1677 8.88864C17.2219 8.76608 17.25 8.63408 17.25 8.50034C17.25 8.36661 17.2219 8.23461 17.1677 8.11205C17.1135 7.98954 17.0346 7.87933 16.9363 7.78726L9.73696 1.03767C9.73693 1.03764 9.73689 1.03761 9.73686 1.03758C9.63871 0.945479 9.52303 0.873204 9.3968 0.824148C9.27055 0.775081 9.13573 0.75 8.99991 0.75C8.86409 0.75 8.72927 0.775081 8.60301 0.824148C8.47679 0.873204 8.36111 0.94548 8.26296 1.03758C8.26292 1.03761 8.26289 1.03764 8.26286 1.03767L1.06344 7.78736C0.864854 7.97354 0.75 8.22963 0.75 8.50034C0.75 8.77106 0.864854 9.02715 1.06344 9.21333C1.26148 9.399 1.52683 9.50074 1.80039 9.50074C2.07396 9.50074 2.3393 9.399 2.53734 9.21333Z" fill="white" stroke="white" stroke-width="0.5"/>
</svg>
